PathFileType	4	(X/Y/Z)	E:\Studenten\Marcel_BSc\Hannes_22_01_2025\22-01-2025\static_01.trc
DataRate	CameraRate	NumFrames	NumMarkers	Units	OrigDataRate	OrigDataStartFrame	OrigNumFrames
200.0	200.0	4	59	mm	200.0	125	497	
Frame#	Time	FHD			LBHD			RBHD			RBAR			LBAR			RASI			RSACR			LSACR			LASI			USACR			C7			CLAV			T10			RSHO			LSHO			LTHI1			LTHI3			LTHI2			LLFC			LMFC			LTIB1			LTIB2			LTIB3			LMMAL			LLMAL			LHEE			LMT1			LMT5			LMT3			RTHI1			RTHI2			RTHI3			RLFC			RMFC			RTIB1			RTIB3			RTIB2			RLMAL			RMMAL			RHEE			RMT5			RMT1			RMT3			LMEP			LLEP			LDUPA			LMUPA			LUUPA			LUL			LRAD			LRFIN			RUL			RRAD			RUFIN			RMEP			RLEP			RMUPA			RDUPA			RUUPA			
		X1	Y1	Z1	X2	Y2	Z2	X3	Y3	Z3	X4	Y4	Z4	X5	Y5	Z5	X6	Y6	Z6	X7	Y7	Z7	X8	Y8	Z8	X9	Y9	Z9	X10	Y10	Z10	X11	Y11	Z11	X12	Y12	Z12	X13	Y13	Z13	X14	Y14	Z14	X15	Y15	Z15	X16	Y16	Z16	X17	Y17	Z17	X18	Y18	Z18	X19	Y19	Z19	X20	Y20	Z20	X21	Y21	Z21	X22	Y22	Z22	X23	Y23	Z23	X24	Y24	Z24	X25	Y25	Z25	X26	Y26	Z26	X27	Y27	Z27	X28	Y28	Z28	X29	Y29	Z29	X30	Y30	Z30	X31	Y31	Z31	X32	Y32	Z32	X33	Y33	Z33	X34	Y34	Z34	X35	Y35	Z35	X36	Y36	Z36	X37	Y37	Z37	X38	Y38	Z38	X39	Y39	Z39	X40	Y40	Z40	X41	Y41	Z41	X42	Y42	Z42	X43	Y43	Z43	X44	Y44	Z44	X45	Y45	Z45	X46	Y46	Z46	X47	Y47	Z47	X48	Y48	Z48	X49	Y49	Z49	X50	Y50	Z50	X51	Y51	Z51	X52	Y52	Z52	X53	Y53	Z53	X54	Y54	Z54	X55	Y55	Z55	X56	Y56	Z56	X57	Y57	Z57	X58	Y58	Z58	X59	Y59	Z59	
125	0.62	66.072113	1709.7633	-1220.9786	150.77608	1680.3241	-1120.267	163.19299	1675.6257	-1314.4906	-530.17548	25.849472	-2111.51	-499.42896	36.270164	112.27798	109.69419	988.03662	-1329.7412	302.67029	1049.9994	-1256.1327	303.14856	1055.4543	-1148.7738	116.44921	994.89569	-1060.7897	303.62146	1074.512	-1201.7679	293.56097	1170.5328	-1202.2009	124.78187	1448.9987	-1207.2201	294.87277	1492.8099	-1207.0908	274.41687	1484.1721	-1366.6841	273.02432	1491.1399	-1046.7355	212.73322	791.92938	-982.93182	183.94017	731.93652	-973.41541	234.00171	728.9469	-982.35687	223.40044	504.18616	-998.62933	206.50739	464.93903	-1106.5089	319.7417	278.01462	-966.78735	269.3811	267.86057	-961.71497	306.14023	214.10846	-968.41003	277.42947	86.205383	-1054.3861	309.65829	80.123222	-965.96442	354.47656	22.01203	-1015.2563	142.8461	40.001518	-996.72705	185.67018	26.600843	-915.62292	149.07588	30.096214	-948.5592	222.19829	782.08856	-1410.1774	190.4129	724.26929	-1417.2694	239.82735	717.87451	-1408.7052	217.9996	494.79089	-1384.0046	195.99445	477.52103	-1277.3975	294.91779	274.3678	-1422.7939	244.74304	277.384	-1414.0449	268.56909	215.71893	-1414.0082	295.12354	79.977615	-1409.9332	257.49573	83.343994	-1322.694	343.8725	30.205099	-1366.3516	184.12827	27.388994	-1460.9469	124.54436	36.006325	-1389.6901	135.74767	28.368542	-1438.1372	216.49336	1356.8903	-769.84869	279.448	1447.1658	-762.30115	288.33298	1440.519	-829.2121	254.11584	1482.6124	-887.92224	291.35736	1449.391	-890.55286	199.4537	1480.2421	-520.05963	157.41519	1501.2623	-534.52869	115.08011	1492.271	-434.05356	216.55858	1467.0756	-1902.1456	173.08194	1491.6879	-1883.7799	156.26646	1486.9026	-1996.4163	230.61533	1351.5127	-1638.3031	295.8761	1439.6462	-1653.7833	310.47424	1425.8989	-1548.3064	290.2522	1450.7587	-1586.0797	290.54742	1471.1769	-1509.5017
126	0.625	66.055099	1709.7502	-1220.9741	150.76524	1680.3208	-1120.2734	163.17267	1675.625	-1314.4923	-530.28821	25.796021	-2111.2585	-499.41907	36.27047	112.26885	109.67918	988.02966	-1329.748	302.66779	1050.0122	-1256.1233	303.15726	1055.4554	-1148.764	116.46759	994.88812	-1060.7634	303.62534	1074.5175	-1201.7592	293.56992	1170.5378	-1202.2004	124.7986	1448.9982	-1207.2286	294.88092	1492.8087	-1207.1024	274.41449	1484.1807	-1366.6826	273.04224	1491.1464	-1046.7465	212.82399	792.1875	-982.94006	183.92958	731.92554	-973.4184	233.99663	728.93903	-982.36414	223.36969	504.20529	-998.63538	206.50278	464.94348	-1106.4969	319.7345	278.01135	-966.78156	269.38837	267.86469	-961.73566	306.12946	214.09218	-968.42511	277.42398	86.20845	-1054.3928	309.66467	80.120926	-965.96863	354.47238	22.023769	-1015.2569	142.84694	39.999161	-996.72723	185.6748	26.603352	-915.6217	149.07198	30.090273	-948.5575	222.18993	782.09052	-1410.1866	190.41667	724.27911	-1417.2574	239.81952	717.85822	-1408.7241	217.99298	494.79935	-1384.0189	195.97771	477.52167	-1277.3998	294.90604	274.36877	-1422.7981	244.62158	277.33151	-1413.6243	268.57388	215.71153	-1413.9983	295.11179	79.974823	-1409.918	257.49545	83.351723	-1322.6874	343.86865	30.20171	-1366.3499	184.1243	27.394892	-1460.9407	124.53908	36.006851	-1389.6973	135.74078	28.375637	-1438.1361	216.51111	1356.8789	-769.8385	279.48083	1447.1643	-762.30658	288.36792	1440.5151	-829.21997	254.1442	1482.6074	-887.92914	291.37836	1449.3936	-890.55768	199.51889	1480.2412	-520.05743	157.46658	1501.2554	-534.52301	115.1545	1492.2621	-434.03616	216.54082	1467.0908	-1902.1898	173.05653	1491.7429	-1883.7656	156.24332	1486.9485	-1996.396	230.61871	1351.5255	-1638.3126	295.86447	1439.6738	-1653.8112	310.465	1425.9225	-1548.2987	290.22086	1450.7883	-1586.0813	290.53424	1471.1852	-1509.5085
127	0.63	66.017212	1709.7434	-1220.9722	150.75255	1680.3147	-1120.288	163.14537	1675.6273	-1314.4888	-530.15204	25.825085	-2111.5081	-499.43622	36.270168	112.28378	109.67767	988.02905	-1329.7336	302.68323	1049.9924	-1256.1287	303.15601	1055.4556	-1148.7709	116.46622	994.89868	-1060.7579	303.63385	1074.5106	-1201.7563	293.57544	1170.5399	-1202.2064	124.8172	1449.0042	-1207.2114	294.88046	1492.8082	-1207.1122	274.42282	1484.1853	-1366.6821	273.05661	1491.1361	-1046.7412	212.83672	792.18347	-982.95026	183.92529	731.93683	-973.42303	233.98813	728.97211	-982.33319	223.39514	504.20804	-998.64056	206.5025	464.93713	-1106.4862	319.73105	278.00827	-966.79095	269.35706	267.85699	-961.72754	306.12091	214.10657	-968.41064	277.41913	86.206696	-1054.3916	309.67227	80.121918	-965.96381	354.48013	22.019941	-1015.2753	142.84445	40.002258	-996.72687	185.67293	26.59473	-915.63037	149.0688	30.085052	-948.55133	222.1907	782.08777	-1410.1869	190.39886	724.27814	-1417.2577	239.82079	717.86176	-1408.7235	217.97493	494.79263	-1384.0046	195.94926	477.5126	-1277.3755	294.89886	274.36081	-1422.7933	244.71104	277.36725	-1414.0349	268.55417	215.73042	-1414	295.12213	79.975822	-1409.9291	257.50504	83.341652	-1322.6919	343.86523	30.213369	-1366.3529	184.12672	27.405832	-1460.9471	124.53783	36.007645	-1389.686	135.73732	28.380331	-1438.1383	216.53221	1356.8796	-769.85095	279.51343	1447.1594	-762.30615	288.40161	1440.5111	-829.21722	254.14952	1482.6001	-887.93634	291.40161	1449.399	-890.55396	199.57082	1480.2239	-520.04449	157.50856	1501.2632	-534.51758	115.21381	1492.2446	-434.02774	216.50632	1467.118	-1902.1824	173.03012	1491.7673	-1883.7568	156.23349	1487.0011	-1996.402	230.60539	1351.5345	-1638.3282	295.85205	1439.6964	-1653.8213	310.45364	1425.9436	-1548.3163	290.1955	1450.7999	-1586.1013	290.51273	1471.2094	-1509.5105
128	0.635	65.997566	1709.7338	-1220.9747	150.74994	1680.3094	-1120.276	163.14369	1675.6049	-1314.5004	-530.22015	25.833241	-2111.4805	-499.4335	36.273731	112.28027	109.69016	988.03925	-1329.7397	302.68314	1049.9791	-1256.1295	303.16226	1055.4591	-1148.7778	116.48756	994.91113	-1060.7549	303.61267	1074.5303	-1201.7524	293.58606	1170.5361	-1202.2036	124.80979	1448.9889	-1207.2153	295.09601	1492.9359	-1207.1661	274.42569	1484.179	-1366.6842	273.08603	1491.1344	-1046.7548	212.78957	792.17798	-982.96484	183.94469	731.93323	-973.40894	233.98979	728.9693	-982.341	223.38034	504.21448	-998.62878	206.48064	464.94623	-1106.4806	319.97531	278.27029	-966.43506	269.35114	267.82947	-961.73315	306.10953	214.1142	-968.41553	277.4227	86.201912	-1054.3972	309.66992	80.124786	-965.97321	354.47119	22.028465	-1015.2618	142.84561	40.001934	-996.72839	185.67551	26.594765	-915.63214	149.0723	30.094143	-948.55902	222.18666	782.08862	-1410.1842	190.39284	724.28412	-1417.257	239.82564	717.85925	-1408.7177	217.97197	494.79181	-1384.0101	195.95187	477.51559	-1277.3824	294.9014	274.36096	-1422.8029	244.71574	277.38614	-1414.0225	268.55429	215.73357	-1413.9954	295.11282	79.972847	-1409.9298	257.50015	83.347061	-1322.6874	343.85889	30.19639	-1366.3501	184.1321	27.413389	-1460.9523	124.54131	36.01392	-1389.6858	135.74182	28.368034	-1438.137	216.54297	1356.8684	-769.86829	279.53259	1447.1638	-762.31781	288.38922	1440.4918	-829.22406	254.17113	1482.5958	-887.94025	291.41547	1449.397	-890.55975	199.59473	1480.2278	-520.02698	157.56995	1501.2524	-534.51184	115.27306	1492.2341	-434.01337	216.47127	1467.1531	-1902.204	173.00165	1491.8047	-1883.7577	156.21053	1487.0511	-1996.3741	230.60393	1351.5529	-1638.3579	295.83847	1439.7142	-1653.8141	310.43674	1425.9614	-1548.3195	290.17474	1450.8145	-1586.1259	290.50314	1471.214	-1509.5303
